<?xml version="1.0" encoding="UTF-8" standalone="no"?>
<!DOCTYPE svg PUBLIC "-//W3C//DTD SVG 1.1//EN"
 "http://www.w3.org/Graphics/SVG/1.1/DTD/svg11.dtd">
<!-- Generated by graphviz version 2.40.1 (0)
 -->
<!-- Title: snakemake_dag Pages: 1 -->
<svg width="933pt" height="476pt"
 viewBox="0.00 0.00 932.50 476.00" xmlns="http://www.w3.org/2000/svg" xmlns:xlink="http://www.w3.org/1999/xlink">
<g id="graph0" class="graph" transform="scale(1 1) rotate(0) translate(4 472)">
<title>snakemake_dag</title>
<polygon fill="#ffffff" stroke="transparent" points="-4,4 -4,-472 928.5,-472 928.5,4 -4,4"/>
<!-- 0 -->
<g id="node1" class="node">
<title>0</title>
<path fill="none" stroke="#d8b456" stroke-width="2" d="M450.5,-36C450.5,-36 378.5,-36 378.5,-36 372.5,-36 366.5,-30 366.5,-24 366.5,-24 366.5,-12 366.5,-12 366.5,-6 372.5,0 378.5,0 378.5,0 450.5,0 450.5,0 456.5,0 462.5,-6 462.5,-12 462.5,-12 462.5,-24 462.5,-24 462.5,-30 456.5,-36 450.5,-36"/>
<text text-anchor="middle" x="414.5" y="-15.5" font-family="sans" font-size="10.00" fill="#000000">make_summary</text>
</g>
<!-- 1 -->
<g id="node2" class="node">
<title>1</title>
<path fill="none" stroke="#5673d8" stroke-width="2" d="M100.5,-180C100.5,-180 56.5,-180 56.5,-180 50.5,-180 44.5,-174 44.5,-168 44.5,-168 44.5,-156 44.5,-156 44.5,-150 50.5,-144 56.5,-144 56.5,-144 100.5,-144 100.5,-144 106.5,-144 112.5,-150 112.5,-156 112.5,-156 112.5,-168 112.5,-168 112.5,-174 106.5,-180 100.5,-180"/>
<text text-anchor="middle" x="78.5" y="-159.5" font-family="sans" font-size="10.00" fill="#000000">make_dag</text>
</g>
<!-- 1&#45;&gt;0 -->
<g id="edge1" class="edge">
<title>1&#45;&gt;0</title>
<path fill="none" stroke="#c0c0c0" stroke-width="2" d="M88.6049,-143.6352C101.0516,-122.8385 124.1929,-89.5691 153.5,-72 187.0279,-51.9007 289.9916,-34.8099 356.1304,-25.5118"/>
<polygon fill="#c0c0c0" stroke="#c0c0c0" stroke-width="2" points="356.9878,-28.9265 366.4128,-24.0871 356.0271,-21.9928 356.9878,-28.9265"/>
</g>
<!-- 2 -->
<g id="node3" class="node">
<title>2</title>
<path fill="none" stroke="#bed856" stroke-width="2" d="M89,-108C89,-108 12,-108 12,-108 6,-108 0,-102 0,-96 0,-96 0,-84 0,-84 0,-78 6,-72 12,-72 12,-72 89,-72 89,-72 95,-72 101,-78 101,-84 101,-84 101,-96 101,-96 101,-102 95,-108 89,-108"/>
<text text-anchor="middle" x="50.5" y="-87.5" font-family="sans" font-size="10.00" fill="#000000">save_pinned_env</text>
</g>
<!-- 1&#45;&gt;2 -->
<g id="edge16" class="edge">
<title>1&#45;&gt;2</title>
<path fill="none" stroke="#c0c0c0" stroke-width="2" d="M71.4344,-143.8314C68.374,-135.9617 64.7221,-126.5712 61.3318,-117.8533"/>
<polygon fill="#c0c0c0" stroke="#c0c0c0" stroke-width="2" points="64.5473,-116.4647 57.6607,-108.4133 58.0232,-119.0019 64.5473,-116.4647"/>
</g>
<!-- 2&#45;&gt;0 -->
<g id="edge2" class="edge">
<title>2&#45;&gt;0</title>
<path fill="none" stroke="#c0c0c0" stroke-width="2" d="M101.1283,-75.4979C105.971,-74.2562 110.8195,-73.0684 115.5,-72 198.5091,-53.0524 295.7086,-36.5306 356.2037,-26.9082"/>
<polygon fill="#c0c0c0" stroke="#c0c0c0" stroke-width="2" points="356.9937,-30.3269 366.3245,-25.3084 355.9006,-23.4128 356.9937,-30.3269"/>
</g>
<!-- 3 -->
<g id="node4" class="node">
<title>3</title>
<path fill="none" stroke="#68d856" stroke-width="2" d="M293.5,-324C293.5,-324 207.5,-324 207.5,-324 201.5,-324 195.5,-318 195.5,-312 195.5,-312 195.5,-300 195.5,-300 195.5,-294 201.5,-288 207.5,-288 207.5,-288 293.5,-288 293.5,-288 299.5,-288 305.5,-294 305.5,-300 305.5,-300 305.5,-312 305.5,-312 305.5,-318 299.5,-324 293.5,-324"/>
<text text-anchor="middle" x="250.5" y="-303.5" font-family="sans" font-size="10.00" fill="#000000">get_mut_bind_expr</text>
</g>
<!-- 3&#45;&gt;0 -->
<g id="edge3" class="edge">
<title>3&#45;&gt;0</title>
<path fill="none" stroke="#c0c0c0" stroke-width="2" d="M240.0441,-287.6605C234.8542,-277.5026 229.1409,-264.4443 226.5,-252 223.1785,-236.3486 222.2055,-231.4129 226.5,-216 246.5698,-143.97 259.2576,-123.4672 313.5,-72 326.703,-59.4725 343.377,-48.9998 359.3518,-40.7141"/>
<polygon fill="#c0c0c0" stroke="#c0c0c0" stroke-width="2" points="361.2519,-43.6781 368.6453,-36.0894 358.1332,-37.4112 361.2519,-43.6781"/>
</g>
<!-- 11 -->
<g id="node12" class="node">
<title>11</title>
<path fill="none" stroke="#5692d8" stroke-width="2" d="M595.5,-252C595.5,-252 525.5,-252 525.5,-252 519.5,-252 513.5,-246 513.5,-240 513.5,-240 513.5,-228 513.5,-228 513.5,-222 519.5,-216 525.5,-216 525.5,-216 595.5,-216 595.5,-216 601.5,-216 607.5,-222 607.5,-228 607.5,-228 607.5,-240 607.5,-240 607.5,-246 601.5,-252 595.5,-252"/>
<text text-anchor="middle" x="560.5" y="-231.5" font-family="sans" font-size="10.00" fill="#000000">collapse_scores</text>
</g>
<!-- 3&#45;&gt;11 -->
<g id="edge27" class="edge">
<title>3&#45;&gt;11</title>
<path fill="none" stroke="#c0c0c0" stroke-width="2" d="M305.5807,-290.1879C308.5915,-289.4238 311.5792,-288.6891 314.5,-288 397.3006,-268.4657 419.9681,-272.6401 502.5,-252 502.8356,-251.9161 503.1722,-251.8313 503.5095,-251.7458"/>
<polygon fill="#c0c0c0" stroke="#c0c0c0" stroke-width="2" points="504.7056,-255.0489 513.4597,-249.081 502.8947,-248.2872 504.7056,-255.0489"/>
</g>
<!-- 4 -->
<g id="node5" class="node">
<title>4</title>
<path fill="none" stroke="#56d863" stroke-width="2" d="M369,-252C369,-252 248,-252 248,-252 242,-252 236,-246 236,-240 236,-240 236,-228 236,-228 236,-222 242,-216 248,-216 248,-216 369,-216 369,-216 375,-216 381,-222 381,-228 381,-228 381,-240 381,-240 381,-246 375,-252 369,-252"/>
<text text-anchor="middle" x="308.5" y="-231.5" font-family="sans" font-size="10.00" fill="#000000">get_mut_antibody_escape</text>
</g>
<!-- 4&#45;&gt;0 -->
<g id="edge4" class="edge">
<title>4&#45;&gt;0</title>
<path fill="none" stroke="#c0c0c0" stroke-width="2" d="M306.6333,-215.8288C304.2931,-184.0142 303.6035,-117.3056 332.5,-72 340.3185,-59.7417 352.0303,-49.6572 364.1729,-41.6588"/>
<polygon fill="#c0c0c0" stroke="#c0c0c0" stroke-width="2" points="366.3584,-44.4236 373.0412,-36.2022 362.6901,-38.4617 366.3584,-44.4236"/>
</g>
<!-- 14 -->
<g id="node15" class="node">
<title>14</title>
<path fill="none" stroke="#9fd856" stroke-width="2" d="M448,-180C448,-180 381,-180 381,-180 375,-180 369,-174 369,-168 369,-168 369,-156 369,-156 369,-150 375,-144 381,-144 381,-144 448,-144 448,-144 454,-144 460,-150 460,-156 460,-156 460,-168 460,-168 460,-174 454,-180 448,-180"/>
<text text-anchor="middle" x="414.5" y="-159.5" font-family="sans" font-size="10.00" fill="#000000">epistatic_shifts</text>
</g>
<!-- 4&#45;&gt;14 -->
<g id="edge31" class="edge">
<title>4&#45;&gt;14</title>
<path fill="none" stroke="#c0c0c0" stroke-width="2" d="M335.2483,-215.8314C348.5553,-206.7927 364.816,-195.7476 379.1375,-186.0198"/>
<polygon fill="#c0c0c0" stroke="#c0c0c0" stroke-width="2" points="381.4547,-188.677 387.7603,-180.1628 377.5215,-182.8864 381.4547,-188.677"/>
</g>
<!-- 5 -->
<g id="node6" class="node">
<title>5</title>
<path fill="none" stroke="#56d882" stroke-width="2" d="M481.5,-252C481.5,-252 411.5,-252 411.5,-252 405.5,-252 399.5,-246 399.5,-240 399.5,-240 399.5,-228 399.5,-228 399.5,-222 405.5,-216 411.5,-216 411.5,-216 481.5,-216 481.5,-216 487.5,-216 493.5,-222 493.5,-228 493.5,-228 493.5,-240 493.5,-240 493.5,-246 487.5,-252 481.5,-252"/>
<text text-anchor="middle" x="446.5" y="-231.5" font-family="sans" font-size="10.00" fill="#000000">get_SARSr_DMS</text>
</g>
<!-- 5&#45;&gt;0 -->
<g id="edge5" class="edge">
<title>5&#45;&gt;0</title>
<path fill="none" stroke="#c0c0c0" stroke-width="2" d="M403.9839,-215.8844C387.9774,-207.1525 370.9072,-195.2215 359.5,-180 339.583,-153.4232 343.9855,-140.9073 339.5,-108 337.339,-92.1466 332.2056,-86.2405 339.5,-72 345.737,-59.8238 356.1395,-49.7682 367.2407,-41.7713"/>
<polygon fill="#c0c0c0" stroke="#c0c0c0" stroke-width="2" points="369.4316,-44.5171 375.8086,-36.0563 365.5473,-38.6937 369.4316,-44.5171"/>
</g>
<!-- 5&#45;&gt;14 -->
<g id="edge32" class="edge">
<title>5&#45;&gt;14</title>
<path fill="none" stroke="#c0c0c0" stroke-width="2" d="M438.425,-215.8314C434.8898,-207.8771 430.664,-198.369 426.7544,-189.5723"/>
<polygon fill="#c0c0c0" stroke="#c0c0c0" stroke-width="2" points="429.9435,-188.1299 422.6837,-180.4133 423.5468,-190.9729 429.9435,-188.1299"/>
</g>
<!-- 6 -->
<g id="node7" class="node">
<title>6</title>
<path fill="none" stroke="#56d8c1" stroke-width="2" d="M596,-468C596,-468 521,-468 521,-468 515,-468 509,-462 509,-456 509,-456 509,-444 509,-444 509,-438 515,-432 521,-432 521,-432 596,-432 596,-432 602,-432 608,-438 608,-444 608,-444 608,-456 608,-456 608,-462 602,-468 596,-468"/>
<text text-anchor="middle" x="558.5" y="-447.5" font-family="sans" font-size="10.00" fill="#000000">process_ccs_KP3</text>
</g>
<!-- 6&#45;&gt;0 -->
<g id="edge6" class="edge">
<title>6&#45;&gt;0</title>
<path fill="none" stroke="#c0c0c0" stroke-width="2" d="M508.9796,-442.4673C403.767,-425.0664 167.5,-377.9775 167.5,-306 167.5,-306 167.5,-306 167.5,-162 167.5,-75.0072 283.2622,-39.6355 356.2858,-25.9768"/>
<polygon fill="#c0c0c0" stroke="#c0c0c0" stroke-width="2" points="357.0605,-29.3939 366.2896,-24.1905 355.83,-22.5029 357.0605,-29.3939"/>
</g>
<!-- 8 -->
<g id="node9" class="node">
<title>8</title>
<path fill="none" stroke="#d85656" stroke-width="2" d="M713,-396C713,-396 648,-396 648,-396 642,-396 636,-390 636,-384 636,-384 636,-372 636,-372 636,-366 642,-360 648,-360 648,-360 713,-360 713,-360 719,-360 725,-366 725,-372 725,-372 725,-384 725,-384 725,-390 719,-396 713,-396"/>
<text text-anchor="middle" x="680.5" y="-375.5" font-family="sans" font-size="10.00" fill="#000000">count_variants</text>
</g>
<!-- 6&#45;&gt;8 -->
<g id="edge17" class="edge">
<title>6&#45;&gt;8</title>
<path fill="none" stroke="#c0c0c0" stroke-width="2" d="M589.2858,-431.8314C604.8903,-422.6221 624.024,-411.3301 640.7303,-401.4706"/>
<polygon fill="#c0c0c0" stroke="#c0c0c0" stroke-width="2" points="642.8909,-404.2596 649.7241,-396.1628 639.3331,-398.2312 642.8909,-404.2596"/>
</g>
<!-- 9 -->
<g id="node10" class="node">
<title>9</title>
<path fill="none" stroke="#56b1d8" stroke-width="2" d="M706.5,-324C706.5,-324 654.5,-324 654.5,-324 648.5,-324 642.5,-318 642.5,-312 642.5,-312 642.5,-300 642.5,-300 642.5,-294 648.5,-288 654.5,-288 654.5,-288 706.5,-288 706.5,-288 712.5,-288 718.5,-294 718.5,-300 718.5,-300 718.5,-312 718.5,-312 718.5,-318 712.5,-324 706.5,-324"/>
<text text-anchor="middle" x="680.5" y="-303.5" font-family="sans" font-size="10.00" fill="#000000">fit_titrations</text>
</g>
<!-- 6&#45;&gt;9 -->
<g id="edge19" class="edge">
<title>6&#45;&gt;9</title>
<path fill="none" stroke="#c0c0c0" stroke-width="2" d="M571.0909,-431.842C584.2409,-413.248 605.7997,-383.7823 626.5,-360 635.0006,-350.2338 644.8737,-340.0606 653.8353,-331.2121"/>
<polygon fill="#c0c0c0" stroke="#c0c0c0" stroke-width="2" points="656.3829,-333.6164 661.0985,-324.1289 651.4956,-328.605 656.3829,-333.6164"/>
</g>
<!-- 10 -->
<g id="node11" class="node">
<title>10</title>
<path fill="none" stroke="#88d856" stroke-width="2" d="M612,-324C612,-324 517,-324 517,-324 511,-324 505,-318 505,-312 505,-312 505,-300 505,-300 505,-294 511,-288 517,-288 517,-288 612,-288 612,-288 618,-288 624,-294 624,-300 624,-300 624,-312 624,-312 624,-318 618,-324 612,-324"/>
<text text-anchor="middle" x="564.5" y="-303.5" font-family="sans" font-size="10.00" fill="#000000">calculate_expression</text>
</g>
<!-- 6&#45;&gt;10 -->
<g id="edge22" class="edge">
<title>6&#45;&gt;10</title>
<path fill="none" stroke="#c0c0c0" stroke-width="2" d="M556.6512,-431.6979C555.1036,-413.4913 553.4497,-384.7729 555.5,-360 556.1945,-351.6085 557.4862,-342.5578 558.8786,-334.3092"/>
<polygon fill="#c0c0c0" stroke="#c0c0c0" stroke-width="2" points="562.3353,-334.8612 560.6587,-324.3999 555.4456,-333.6235 562.3353,-334.8612"/>
</g>
<!-- 7 -->
<g id="node8" class="node">
<title>7</title>
<path fill="none" stroke="#56d8a2" stroke-width="2" d="M728.5,-468C728.5,-468 654.5,-468 654.5,-468 648.5,-468 642.5,-462 642.5,-456 642.5,-456 642.5,-444 642.5,-444 642.5,-438 648.5,-432 654.5,-432 654.5,-432 728.5,-432 728.5,-432 734.5,-432 740.5,-438 740.5,-444 740.5,-444 740.5,-456 740.5,-456 740.5,-462 734.5,-468 728.5,-468"/>
<text text-anchor="middle" x="691.5" y="-447.5" font-family="sans" font-size="10.00" fill="#000000">process_ccs_LP8</text>
</g>
<!-- 7&#45;&gt;0 -->
<g id="edge7" class="edge">
<title>7&#45;&gt;0</title>
<path fill="none" stroke="#c0c0c0" stroke-width="2" d="M740.6286,-442.1518C808.9882,-428.115 924.5,-391.7148 924.5,-306 924.5,-306 924.5,-306 924.5,-162 924.5,-98.488 871.801,-97.1947 813.5,-72 753.5236,-46.0813 568.3799,-29.2211 472.8519,-22.0106"/>
<polygon fill="#c0c0c0" stroke="#c0c0c0" stroke-width="2" points="473.009,-18.5127 462.7768,-21.2609 472.4895,-25.4934 473.009,-18.5127"/>
</g>
<!-- 7&#45;&gt;8 -->
<g id="edge18" class="edge">
<title>7&#45;&gt;8</title>
<path fill="none" stroke="#c0c0c0" stroke-width="2" d="M688.7242,-431.8314C687.5478,-424.131 686.1489,-414.9743 684.8414,-406.4166"/>
<polygon fill="#c0c0c0" stroke="#c0c0c0" stroke-width="2" points="688.2833,-405.7699 683.3131,-396.4133 681.3636,-406.8272 688.2833,-405.7699"/>
</g>
<!-- 7&#45;&gt;9 -->
<g id="edge20" class="edge">
<title>7&#45;&gt;9</title>
<path fill="none" stroke="#c0c0c0" stroke-width="2" d="M710.55,-431.8859C719.357,-422.1885 728.8746,-409.4808 733.5,-396 738.6926,-380.866 739.5538,-374.8105 733.5,-360 729.0408,-349.0907 721.1975,-339.1954 712.8897,-330.9434"/>
<polygon fill="#c0c0c0" stroke="#c0c0c0" stroke-width="2" points="715.2552,-328.3637 705.5428,-324.1305 710.4955,-333.4965 715.2552,-328.3637"/>
</g>
<!-- 7&#45;&gt;10 -->
<g id="edge23" class="edge">
<title>7&#45;&gt;10</title>
<path fill="none" stroke="#c0c0c0" stroke-width="2" d="M666.6409,-431.9632C653.9023,-422.096 638.5741,-409.2126 626.5,-396 608.6809,-376.5005 591.9065,-351.5927 580.3105,-332.9257"/>
<polygon fill="#c0c0c0" stroke="#c0c0c0" stroke-width="2" points="583.2508,-331.0248 575.052,-324.3142 577.2766,-334.6729 583.2508,-331.0248"/>
</g>
<!-- 8&#45;&gt;0 -->
<g id="edge8" class="edge">
<title>8&#45;&gt;0</title>
<path fill="none" stroke="#c0c0c0" stroke-width="2" d="M725.1857,-370.5334C774.123,-361.4499 848.2327,-344.7291 867.5,-324 895.3325,-294.0557 886.5,-274.8816 886.5,-234 886.5,-234 886.5,-234 886.5,-162 886.5,-76.482 599.4569,-36.7713 473.063,-23.4308"/>
<polygon fill="#c0c0c0" stroke="#c0c0c0" stroke-width="2" points="473.1014,-19.9162 462.7941,-22.3678 472.3806,-26.879 473.1014,-19.9162"/>
</g>
<!-- 8&#45;&gt;9 -->
<g id="edge21" class="edge">
<title>8&#45;&gt;9</title>
<path fill="none" stroke="#c0c0c0" stroke-width="2" d="M680.5,-359.8314C680.5,-352.131 680.5,-342.9743 680.5,-334.4166"/>
<polygon fill="#c0c0c0" stroke="#c0c0c0" stroke-width="2" points="684.0001,-334.4132 680.5,-324.4133 677.0001,-334.4133 684.0001,-334.4132"/>
</g>
<!-- 8&#45;&gt;10 -->
<g id="edge24" class="edge">
<title>8&#45;&gt;10</title>
<path fill="none" stroke="#c0c0c0" stroke-width="2" d="M651.2283,-359.8314C636.3912,-350.6221 618.1985,-339.3301 602.3138,-329.4706"/>
<polygon fill="#c0c0c0" stroke="#c0c0c0" stroke-width="2" points="604.1045,-326.4628 593.7623,-324.1628 600.413,-332.4102 604.1045,-326.4628"/>
</g>
<!-- 9&#45;&gt;0 -->
<g id="edge9" class="edge">
<title>9&#45;&gt;0</title>
<path fill="none" stroke="#c0c0c0" stroke-width="2" d="M687.9008,-287.8532C704.1669,-244.7047 737.5416,-134.8984 684.5,-72 657.8444,-40.3909 543.9213,-26.843 472.8449,-21.3806"/>
<polygon fill="#c0c0c0" stroke="#c0c0c0" stroke-width="2" points="472.9147,-17.8763 462.6846,-20.6321 472.4004,-24.8574 472.9147,-17.8763"/>
</g>
<!-- 9&#45;&gt;11 -->
<g id="edge25" class="edge">
<title>9&#45;&gt;11</title>
<path fill="none" stroke="#c0c0c0" stroke-width="2" d="M650.2189,-287.8314C634.8702,-278.6221 616.0502,-267.3301 599.6177,-257.4706"/>
<polygon fill="#c0c0c0" stroke="#c0c0c0" stroke-width="2" points="601.1471,-254.3066 590.7714,-252.1628 597.5456,-260.3091 601.1471,-254.3066"/>
</g>
<!-- 10&#45;&gt;0 -->
<g id="edge10" class="edge">
<title>10&#45;&gt;0</title>
<path fill="none" stroke="#c0c0c0" stroke-width="2" d="M585.6223,-287.9003C596.023,-278.1128 608.0994,-265.3205 616.5,-252 660.4309,-182.3402 712.115,-136.1741 660.5,-72 637.3814,-43.2562 537.8787,-28.9445 472.7201,-22.527"/>
<polygon fill="#c0c0c0" stroke="#c0c0c0" stroke-width="2" points="472.8605,-19.0246 462.5744,-21.5638 472.1988,-25.9933 472.8605,-19.0246"/>
</g>
<!-- 10&#45;&gt;11 -->
<g id="edge26" class="edge">
<title>10&#45;&gt;11</title>
<path fill="none" stroke="#c0c0c0" stroke-width="2" d="M563.4906,-287.8314C563.0628,-280.131 562.5541,-270.9743 562.0787,-262.4166"/>
<polygon fill="#c0c0c0" stroke="#c0c0c0" stroke-width="2" points="565.5724,-262.2037 561.523,-252.4133 558.5831,-262.592 565.5724,-262.2037"/>
</g>
<!-- 11&#45;&gt;0 -->
<g id="edge11" class="edge">
<title>11&#45;&gt;0</title>
<path fill="none" stroke="#c0c0c0" stroke-width="2" d="M581.8925,-215.8317C616.4426,-184.3092 677.1306,-118.4142 640.5,-72 619.9463,-45.9566 532.5056,-31.0872 472.6152,-23.7842"/>
<polygon fill="#c0c0c0" stroke="#c0c0c0" stroke-width="2" points="472.8573,-20.2885 462.5159,-22.592 472.0366,-27.2403 472.8573,-20.2885"/>
</g>
<!-- 11&#45;&gt;14 -->
<g id="edge30" class="edge">
<title>11&#45;&gt;14</title>
<path fill="none" stroke="#c0c0c0" stroke-width="2" d="M523.658,-215.8314C504.3918,-206.3302 480.6301,-194.6121 460.2008,-184.5374"/>
<polygon fill="#c0c0c0" stroke="#c0c0c0" stroke-width="2" points="461.5938,-181.3219 451.077,-180.038 458.4977,-187.6 461.5938,-181.3219"/>
</g>
<!-- 15 -->
<g id="node16" class="node">
<title>15</title>
<path fill="none" stroke="#d89556" stroke-width="2" d="M459,-108C459,-108 370,-108 370,-108 364,-108 358,-102 358,-96 358,-96 358,-84 358,-84 358,-78 364,-72 370,-72 370,-72 459,-72 459,-72 465,-72 471,-78 471,-84 471,-84 471,-96 471,-96 471,-102 465,-108 459,-108"/>
<text text-anchor="middle" x="414.5" y="-87.5" font-family="sans" font-size="10.00" fill="#000000">interactive_jsd_plot</text>
</g>
<!-- 11&#45;&gt;15 -->
<g id="edge33" class="edge">
<title>11&#45;&gt;15</title>
<path fill="none" stroke="#c0c0c0" stroke-width="2" d="M542.009,-215.7623C516.229,-190.3354 469.377,-144.1253 440.2091,-115.3569"/>
<polygon fill="#c0c0c0" stroke="#c0c0c0" stroke-width="2" points="442.4183,-112.6199 432.8409,-108.0896 437.5028,-117.6037 442.4183,-112.6199"/>
</g>
<!-- 16 -->
<g id="node17" class="node">
<title>16</title>
<path fill="none" stroke="#d87556" stroke-width="2" d="M619.5,-108C619.5,-108 501.5,-108 501.5,-108 495.5,-108 489.5,-102 489.5,-96 489.5,-96 489.5,-84 489.5,-84 489.5,-78 495.5,-72 501.5,-72 501.5,-72 619.5,-72 619.5,-72 625.5,-72 631.5,-78 631.5,-84 631.5,-84 631.5,-96 631.5,-96 631.5,-102 625.5,-108 619.5,-108"/>
<text text-anchor="middle" x="560.5" y="-87.5" font-family="sans" font-size="10.00" fill="#000000">interactive_heatmap_plot</text>
</g>
<!-- 11&#45;&gt;16 -->
<g id="edge35" class="edge">
<title>11&#45;&gt;16</title>
<path fill="none" stroke="#c0c0c0" stroke-width="2" d="M560.5,-215.7623C560.5,-191.201 560.5,-147.2474 560.5,-118.3541"/>
<polygon fill="#c0c0c0" stroke="#c0c0c0" stroke-width="2" points="564.0001,-118.0896 560.5,-108.0896 557.0001,-118.0897 564.0001,-118.0896"/>
</g>
<!-- 12 -->
<g id="node13" class="node">
<title>12</title>
<path fill="none" stroke="#56d0d8" stroke-width="2" d="M475,-324C475,-324 336,-324 336,-324 330,-324 324,-318 324,-312 324,-312 324,-300 324,-300 324,-294 330,-288 336,-288 336,-288 475,-288 475,-288 481,-288 487,-294 487,-300 487,-300 487,-312 487,-312 487,-318 481,-324 475,-324"/>
<text text-anchor="middle" x="405.5" y="-303.5" font-family="sans" font-size="10.00" fill="#000000">get_mut_bind_full_spike_DMS</text>
</g>
<!-- 12&#45;&gt;11 -->
<g id="edge28" class="edge">
<title>12&#45;&gt;11</title>
<path fill="none" stroke="#c0c0c0" stroke-width="2" d="M444.613,-287.8314C465.2512,-278.2446 490.7484,-266.4008 512.5673,-256.2655"/>
<polygon fill="#c0c0c0" stroke="#c0c0c0" stroke-width="2" points="514.0734,-259.4251 521.6682,-252.038 511.1244,-253.0766 514.0734,-259.4251"/>
</g>
<!-- 13 -->
<g id="node14" class="node">
<title>13</title>
<path fill="none" stroke="#d8d356" stroke-width="2" d="M846.5,-324C846.5,-324 748.5,-324 748.5,-324 742.5,-324 736.5,-318 736.5,-312 736.5,-312 736.5,-300 736.5,-300 736.5,-294 742.5,-288 748.5,-288 748.5,-288 846.5,-288 846.5,-288 852.5,-288 858.5,-294 858.5,-300 858.5,-300 858.5,-312 858.5,-312 858.5,-318 852.5,-324 846.5,-324"/>
<text text-anchor="middle" x="797.5" y="-303.5" font-family="sans" font-size="10.00" fill="#000000">gisaid_rbd_mutations</text>
</g>
<!-- 13&#45;&gt;0 -->
<g id="edge15" class="edge">
<title>13&#45;&gt;0</title>
<path fill="none" stroke="#c0c0c0" stroke-width="2" d="M796.4084,-287.982C792.6934,-243.6457 776.6294,-128.7469 708.5,-72 673.5104,-42.8562 548.3281,-28.2929 473.0559,-22.0156"/>
<polygon fill="#c0c0c0" stroke="#c0c0c0" stroke-width="2" points="473.0303,-18.5021 462.7806,-21.1841 472.4657,-25.4793 473.0303,-18.5021"/>
</g>
<!-- 13&#45;&gt;11 -->
<g id="edge29" class="edge">
<title>13&#45;&gt;11</title>
<path fill="none" stroke="#c0c0c0" stroke-width="2" d="M738.0008,-287.9243C701.1527,-276.7299 654.0859,-262.4312 617.6787,-251.3707"/>
<polygon fill="#c0c0c0" stroke="#c0c0c0" stroke-width="2" points="618.2956,-247.9003 607.71,-248.3423 616.2608,-254.598 618.2956,-247.9003"/>
</g>
<!-- 14&#45;&gt;0 -->
<g id="edge12" class="edge">
<title>14&#45;&gt;0</title>
<path fill="none" stroke="#c0c0c0" stroke-width="2" d="M381.7375,-143.9454C368.8802,-134.9749 355.5373,-122.8504 348.5,-108 341.6483,-93.5413 341.6483,-86.4587 348.5,-72 354.0529,-60.2821 363.5317,-50.2614 373.6001,-42.1482"/>
<polygon fill="#c0c0c0" stroke="#c0c0c0" stroke-width="2" points="375.831,-44.8503 381.7375,-36.0546 371.6351,-39.2472 375.831,-44.8503"/>
</g>
<!-- 14&#45;&gt;15 -->
<g id="edge34" class="edge">
<title>14&#45;&gt;15</title>
<path fill="none" stroke="#c0c0c0" stroke-width="2" d="M414.5,-143.8314C414.5,-136.131 414.5,-126.9743 414.5,-118.4166"/>
<polygon fill="#c0c0c0" stroke="#c0c0c0" stroke-width="2" points="418.0001,-118.4132 414.5,-108.4133 411.0001,-118.4133 418.0001,-118.4132"/>
</g>
<!-- 15&#45;&gt;0 -->
<g id="edge13" class="edge">
<title>15&#45;&gt;0</title>
<path fill="none" stroke="#c0c0c0" stroke-width="2" d="M414.5,-71.8314C414.5,-64.131 414.5,-54.9743 414.5,-46.4166"/>
<polygon fill="#c0c0c0" stroke="#c0c0c0" stroke-width="2" points="418.0001,-46.4132 414.5,-36.4133 411.0001,-46.4133 418.0001,-46.4132"/>
</g>
<!-- 16&#45;&gt;0 -->
<g id="edge14" class="edge">
<title>16&#45;&gt;0</title>
<path fill="none" stroke="#c0c0c0" stroke-width="2" d="M523.658,-71.8314C504.3918,-62.3302 480.6301,-50.6121 460.2008,-40.5374"/>
<polygon fill="#c0c0c0" stroke="#c0c0c0" stroke-width="2" points="461.5938,-37.3219 451.077,-36.038 458.4977,-43.6 461.5938,-37.3219"/>
</g>
</g>
</svg>
