<?xml version="1.0" encoding="UTF-8" standalone="no"?>
<!DOCTYPE svg PUBLIC "-//W3C//DTD SVG 1.1//EN"
 "http://www.w3.org/Graphics/SVG/1.1/DTD/svg11.dtd">
<!-- Generated by graphviz version 2.40.1 (0)
 -->
<!-- Title: snakemake_dag Pages: 1 -->
<svg width="891pt" height="476pt"
 viewBox="0.00 0.00 890.50 476.00" xmlns="http://www.w3.org/2000/svg" xmlns:xlink="http://www.w3.org/1999/xlink">
<g id="graph0" class="graph" transform="scale(1 1) rotate(0) translate(4 472)">
<title>snakemake_dag</title>
<polygon fill="#ffffff" stroke="transparent" points="-4,4 -4,-472 886.5,-472 886.5,4 -4,4"/>
<!-- 0 -->
<g id="node1" class="node">
<title>0</title>
<path fill="none" stroke="#56d87b" stroke-width="2" d="M436.5,-36C436.5,-36 364.5,-36 364.5,-36 358.5,-36 352.5,-30 352.5,-24 352.5,-24 352.5,-12 352.5,-12 352.5,-6 358.5,0 364.5,0 364.5,0 436.5,0 436.5,0 442.5,0 448.5,-6 448.5,-12 448.5,-12 448.5,-24 448.5,-24 448.5,-30 442.5,-36 436.5,-36"/>
<text text-anchor="middle" x="400.5" y="-15.5" font-family="sans" font-size="10.00" fill="#000000">make_summary</text>
</g>
<!-- 1 -->
<g id="node2" class="node">
<title>1</title>
<path fill="none" stroke="#97d856" stroke-width="2" d="M100.5,-180C100.5,-180 56.5,-180 56.5,-180 50.5,-180 44.5,-174 44.5,-168 44.5,-168 44.5,-156 44.5,-156 44.5,-150 50.5,-144 56.5,-144 56.5,-144 100.5,-144 100.5,-144 106.5,-144 112.5,-150 112.5,-156 112.5,-156 112.5,-168 112.5,-168 112.5,-174 106.5,-180 100.5,-180"/>
<text text-anchor="middle" x="78.5" y="-159.5" font-family="sans" font-size="10.00" fill="#000000">make_dag</text>
</g>
<!-- 1&#45;&gt;0 -->
<g id="edge1" class="edge">
<title>1&#45;&gt;0</title>
<path fill="none" stroke="#c0c0c0" stroke-width="2" d="M88.64,-143.6934C101.1196,-122.9513 124.2919,-89.7332 153.5,-72 184.6883,-53.0646 279.5329,-35.9497 342.2051,-26.2763"/>
<polygon fill="#c0c0c0" stroke="#c0c0c0" stroke-width="2" points="342.997,-29.6961 352.3563,-24.7308 341.9434,-22.7758 342.997,-29.6961"/>
</g>
<!-- 2 -->
<g id="node3" class="node">
<title>2</title>
<path fill="none" stroke="#56b9d8" stroke-width="2" d="M89,-108C89,-108 12,-108 12,-108 6,-108 0,-102 0,-96 0,-96 0,-84 0,-84 0,-78 6,-72 12,-72 12,-72 89,-72 89,-72 95,-72 101,-78 101,-84 101,-84 101,-96 101,-96 101,-102 95,-108 89,-108"/>
<text text-anchor="middle" x="50.5" y="-87.5" font-family="sans" font-size="10.00" fill="#000000">save_pinned_env</text>
</g>
<!-- 1&#45;&gt;2 -->
<g id="edge16" class="edge">
<title>1&#45;&gt;2</title>
<path fill="none" stroke="#c0c0c0" stroke-width="2" d="M71.4344,-143.8314C68.374,-135.9617 64.7221,-126.5712 61.3318,-117.8533"/>
<polygon fill="#c0c0c0" stroke="#c0c0c0" stroke-width="2" points="64.5473,-116.4647 57.6607,-108.4133 58.0232,-119.0019 64.5473,-116.4647"/>
</g>
<!-- 2&#45;&gt;0 -->
<g id="edge2" class="edge">
<title>2&#45;&gt;0</title>
<path fill="none" stroke="#c0c0c0" stroke-width="2" d="M101.1381,-75.5403C105.9788,-74.2899 110.8241,-73.0884 115.5,-72 193.4651,-53.8516 284.4898,-37.4213 342.2971,-27.5725"/>
<polygon fill="#c0c0c0" stroke="#c0c0c0" stroke-width="2" points="343.0656,-30.9922 352.3403,-25.8707 341.8961,-24.0906 343.0656,-30.9922"/>
</g>
<!-- 3 -->
<g id="node4" class="node">
<title>3</title>
<path fill="none" stroke="#d85656" stroke-width="2" d="M374.5,-324C374.5,-324 288.5,-324 288.5,-324 282.5,-324 276.5,-318 276.5,-312 276.5,-312 276.5,-300 276.5,-300 276.5,-294 282.5,-288 288.5,-288 288.5,-288 374.5,-288 374.5,-288 380.5,-288 386.5,-294 386.5,-300 386.5,-300 386.5,-312 386.5,-312 386.5,-318 380.5,-324 374.5,-324"/>
<text text-anchor="middle" x="331.5" y="-303.5" font-family="sans" font-size="10.00" fill="#000000">get_mut_bind_expr</text>
</g>
<!-- 3&#45;&gt;0 -->
<g id="edge3" class="edge">
<title>3&#45;&gt;0</title>
<path fill="none" stroke="#c0c0c0" stroke-width="2" d="M276.2501,-291.4545C256.3927,-283.2706 236.0608,-270.784 224.5,-252 216.1137,-238.3739 218.8724,-230.9776 224.5,-216 252.7839,-140.7238 324.531,-75.912 367.1785,-42.3845"/>
<polygon fill="#c0c0c0" stroke="#c0c0c0" stroke-width="2" points="369.531,-44.9897 375.2985,-36.1023 365.2476,-39.4532 369.531,-44.9897"/>
</g>
<!-- 11 -->
<g id="node12" class="node">
<title>11</title>
<path fill="none" stroke="#d8b456" stroke-width="2" d="M634.5,-252C634.5,-252 564.5,-252 564.5,-252 558.5,-252 552.5,-246 552.5,-240 552.5,-240 552.5,-228 552.5,-228 552.5,-222 558.5,-216 564.5,-216 564.5,-216 634.5,-216 634.5,-216 640.5,-216 646.5,-222 646.5,-228 646.5,-228 646.5,-240 646.5,-240 646.5,-246 640.5,-252 634.5,-252"/>
<text text-anchor="middle" x="599.5" y="-231.5" font-family="sans" font-size="10.00" fill="#000000">collapse_scores</text>
</g>
<!-- 3&#45;&gt;11 -->
<g id="edge27" class="edge">
<title>3&#45;&gt;11</title>
<path fill="none" stroke="#c0c0c0" stroke-width="2" d="M386.7048,-291.1689C432.2436,-278.9346 496.6127,-261.6414 542.6085,-249.2843"/>
<polygon fill="#c0c0c0" stroke="#c0c0c0" stroke-width="2" points="543.6725,-252.6226 552.4219,-246.6478 541.8562,-245.8623 543.6725,-252.6226"/>
</g>
<!-- 4 -->
<g id="node5" class="node">
<title>4</title>
<path fill="none" stroke="#d6d856" stroke-width="2" d="M367,-252C367,-252 246,-252 246,-252 240,-252 234,-246 234,-240 234,-240 234,-228 234,-228 234,-222 240,-216 246,-216 246,-216 367,-216 367,-216 373,-216 379,-222 379,-228 379,-228 379,-240 379,-240 379,-246 373,-252 367,-252"/>
<text text-anchor="middle" x="306.5" y="-231.5" font-family="sans" font-size="10.00" fill="#000000">get_mut_antibody_escape</text>
</g>
<!-- 4&#45;&gt;0 -->
<g id="edge4" class="edge">
<title>4&#45;&gt;0</title>
<path fill="none" stroke="#c0c0c0" stroke-width="2" d="M312.6242,-215.645C323.0015,-185.2114 345.2874,-122.6381 369.5,-72 373.8149,-62.9759 379.0605,-53.4204 384.0004,-44.8967"/>
<polygon fill="#c0c0c0" stroke="#c0c0c0" stroke-width="2" points="387.1087,-46.5164 389.1822,-36.1264 381.082,-42.9556 387.1087,-46.5164"/>
</g>
<!-- 13 -->
<g id="node14" class="node">
<title>13</title>
<path fill="none" stroke="#569ad8" stroke-width="2" d="M478,-180C478,-180 411,-180 411,-180 405,-180 399,-174 399,-168 399,-168 399,-156 399,-156 399,-150 405,-144 411,-144 411,-144 478,-144 478,-144 484,-144 490,-150 490,-156 490,-156 490,-168 490,-168 490,-174 484,-180 478,-180"/>
<text text-anchor="middle" x="444.5" y="-159.5" font-family="sans" font-size="10.00" fill="#000000">epistatic_shifts</text>
</g>
<!-- 4&#45;&gt;13 -->
<g id="edge30" class="edge">
<title>4&#45;&gt;13</title>
<path fill="none" stroke="#c0c0c0" stroke-width="2" d="M341.3232,-215.8314C359.3011,-206.4516 381.4203,-194.9112 400.5616,-184.9244"/>
<polygon fill="#c0c0c0" stroke="#c0c0c0" stroke-width="2" points="402.4411,-187.8916 409.6879,-180.1628 399.2031,-181.6855 402.4411,-187.8916"/>
</g>
<!-- 5 -->
<g id="node6" class="node">
<title>5</title>
<path fill="none" stroke="#56d8d8" stroke-width="2" d="M479.5,-252C479.5,-252 409.5,-252 409.5,-252 403.5,-252 397.5,-246 397.5,-240 397.5,-240 397.5,-228 397.5,-228 397.5,-222 403.5,-216 409.5,-216 409.5,-216 479.5,-216 479.5,-216 485.5,-216 491.5,-222 491.5,-228 491.5,-228 491.5,-240 491.5,-240 491.5,-246 485.5,-252 479.5,-252"/>
<text text-anchor="middle" x="444.5" y="-231.5" font-family="sans" font-size="10.00" fill="#000000">get_SARSr_DMS</text>
</g>
<!-- 5&#45;&gt;0 -->
<g id="edge5" class="edge">
<title>5&#45;&gt;0</title>
<path fill="none" stroke="#c0c0c0" stroke-width="2" d="M419.7731,-215.8545C408.735,-206.4139 396.6337,-193.9368 389.5,-180 367.5162,-137.051 369.225,-119.3485 378.5,-72 380.2344,-63.146 383.4276,-53.9119 386.8538,-45.6355"/>
<polygon fill="#c0c0c0" stroke="#c0c0c0" stroke-width="2" points="390.0764,-47.0018 390.9092,-36.4398 383.6716,-44.1772 390.0764,-47.0018"/>
</g>
<!-- 5&#45;&gt;13 -->
<g id="edge31" class="edge">
<title>5&#45;&gt;13</title>
<path fill="none" stroke="#c0c0c0" stroke-width="2" d="M444.5,-215.8314C444.5,-208.131 444.5,-198.9743 444.5,-190.4166"/>
<polygon fill="#c0c0c0" stroke="#c0c0c0" stroke-width="2" points="448.0001,-190.4132 444.5,-180.4133 441.0001,-190.4133 448.0001,-190.4132"/>
</g>
<!-- 6 -->
<g id="node7" class="node">
<title>6</title>
<path fill="none" stroke="#56d89a" stroke-width="2" d="M593,-468C593,-468 518,-468 518,-468 512,-468 506,-462 506,-456 506,-456 506,-444 506,-444 506,-438 512,-432 518,-432 518,-432 593,-432 593,-432 599,-432 605,-438 605,-444 605,-444 605,-456 605,-456 605,-462 599,-468 593,-468"/>
<text text-anchor="middle" x="555.5" y="-447.5" font-family="sans" font-size="10.00" fill="#000000">process_ccs_KP3</text>
</g>
<!-- 6&#45;&gt;0 -->
<g id="edge6" class="edge">
<title>6&#45;&gt;0</title>
<path fill="none" stroke="#c0c0c0" stroke-width="2" d="M505.9654,-442.3288C401.3655,-424.7309 167.5,-377.4016 167.5,-306 167.5,-306 167.5,-306 167.5,-162 167.5,-79.9632 273.3115,-43.0996 342.3241,-27.7808"/>
<polygon fill="#c0c0c0" stroke="#c0c0c0" stroke-width="2" points="343.1699,-31.1793 352.2222,-25.6742 341.7127,-24.3326 343.1699,-31.1793"/>
</g>
<!-- 8 -->
<g id="node9" class="node">
<title>8</title>
<path fill="none" stroke="#56d8b9" stroke-width="2" d="M716,-396C716,-396 651,-396 651,-396 645,-396 639,-390 639,-384 639,-384 639,-372 639,-372 639,-366 645,-360 651,-360 651,-360 716,-360 716,-360 722,-360 728,-366 728,-372 728,-372 728,-384 728,-384 728,-390 722,-396 716,-396"/>
<text text-anchor="middle" x="683.5" y="-375.5" font-family="sans" font-size="10.00" fill="#000000">count_variants</text>
</g>
<!-- 6&#45;&gt;8 -->
<g id="edge17" class="edge">
<title>6&#45;&gt;8</title>
<path fill="none" stroke="#c0c0c0" stroke-width="2" d="M587.7998,-431.8314C604.3234,-422.5368 624.6186,-411.1208 642.2607,-401.1971"/>
<polygon fill="#c0c0c0" stroke="#c0c0c0" stroke-width="2" points="644.2107,-404.116 651.2105,-396.1628 640.7788,-398.015 644.2107,-404.116"/>
</g>
<!-- 9 -->
<g id="node10" class="node">
<title>9</title>
<path fill="none" stroke="#d89556" stroke-width="2" d="M526.5,-324C526.5,-324 474.5,-324 474.5,-324 468.5,-324 462.5,-318 462.5,-312 462.5,-312 462.5,-300 462.5,-300 462.5,-294 468.5,-288 474.5,-288 474.5,-288 526.5,-288 526.5,-288 532.5,-288 538.5,-294 538.5,-300 538.5,-300 538.5,-312 538.5,-312 538.5,-318 532.5,-324 526.5,-324"/>
<text text-anchor="middle" x="500.5" y="-303.5" font-family="sans" font-size="10.00" fill="#000000">fit_titrations</text>
</g>
<!-- 6&#45;&gt;9 -->
<g id="edge19" class="edge">
<title>6&#45;&gt;9</title>
<path fill="none" stroke="#c0c0c0" stroke-width="2" d="M548.5342,-431.7623C539.0705,-406.9846 522.0689,-362.4714 511.0393,-333.5939"/>
<polygon fill="#c0c0c0" stroke="#c0c0c0" stroke-width="2" points="514.247,-332.1826 507.4092,-324.0896 507.7077,-334.6803 514.247,-332.1826"/>
</g>
<!-- 10 -->
<g id="node11" class="node">
<title>10</title>
<path fill="none" stroke="#78d856" stroke-width="2" d="M804,-324C804,-324 709,-324 709,-324 703,-324 697,-318 697,-312 697,-312 697,-300 697,-300 697,-294 703,-288 709,-288 709,-288 804,-288 804,-288 810,-288 816,-294 816,-300 816,-300 816,-312 816,-312 816,-318 810,-324 804,-324"/>
<text text-anchor="middle" x="756.5" y="-303.5" font-family="sans" font-size="10.00" fill="#000000">calculate_expression</text>
</g>
<!-- 6&#45;&gt;10 -->
<g id="edge22" class="edge">
<title>6&#45;&gt;10</title>
<path fill="none" stroke="#c0c0c0" stroke-width="2" d="M566.5382,-431.9093C579.4804,-411.9868 602.6133,-380.1165 629.5,-360 647.1375,-346.8037 668.4869,-336.1211 688.6071,-327.8487"/>
<polygon fill="#c0c0c0" stroke="#c0c0c0" stroke-width="2" points="690.0508,-331.0414 698.0544,-324.0993 687.4685,-324.535 690.0508,-331.0414"/>
</g>
<!-- 7 -->
<g id="node8" class="node">
<title>7</title>
<path fill="none" stroke="#59d856" stroke-width="2" d="M725.5,-468C725.5,-468 651.5,-468 651.5,-468 645.5,-468 639.5,-462 639.5,-456 639.5,-456 639.5,-444 639.5,-444 639.5,-438 645.5,-432 651.5,-432 651.5,-432 725.5,-432 725.5,-432 731.5,-432 737.5,-438 737.5,-444 737.5,-444 737.5,-456 737.5,-456 737.5,-462 731.5,-468 725.5,-468"/>
<text text-anchor="middle" x="688.5" y="-447.5" font-family="sans" font-size="10.00" fill="#000000">process_ccs_LP8</text>
</g>
<!-- 7&#45;&gt;0 -->
<g id="edge7" class="edge">
<title>7&#45;&gt;0</title>
<path fill="none" stroke="#c0c0c0" stroke-width="2" d="M737.7052,-436.8842C795.1797,-418.2323 882.5,-378.0405 882.5,-306 882.5,-306 882.5,-306 882.5,-162 882.5,-112.6587 859.8953,-97.243 817.5,-72 758.2076,-36.6961 559.0592,-24.0853 458.9639,-19.9041"/>
<polygon fill="#c0c0c0" stroke="#c0c0c0" stroke-width="2" points="458.8526,-16.3969 448.7198,-19.4912 458.5707,-23.3912 458.8526,-16.3969"/>
</g>
<!-- 7&#45;&gt;8 -->
<g id="edge18" class="edge">
<title>7&#45;&gt;8</title>
<path fill="none" stroke="#c0c0c0" stroke-width="2" d="M687.2383,-431.8314C686.7035,-424.131 686.0677,-414.9743 685.4734,-406.4166"/>
<polygon fill="#c0c0c0" stroke="#c0c0c0" stroke-width="2" points="688.9632,-406.1467 684.7787,-396.4133 681.98,-406.6317 688.9632,-406.1467"/>
</g>
<!-- 7&#45;&gt;9 -->
<g id="edge20" class="edge">
<title>7&#45;&gt;9</title>
<path fill="none" stroke="#c0c0c0" stroke-width="2" d="M664.6897,-431.7623C631.0697,-406.0108 569.6188,-358.942 532.1776,-330.2637"/>
<polygon fill="#c0c0c0" stroke="#c0c0c0" stroke-width="2" points="534.1841,-327.3918 524.117,-324.0896 529.9275,-332.949 534.1841,-327.3918"/>
</g>
<!-- 7&#45;&gt;10 -->
<g id="edge23" class="edge">
<title>7&#45;&gt;10</title>
<path fill="none" stroke="#c0c0c0" stroke-width="2" d="M708.9452,-431.819C718.6724,-422.1046 729.6475,-409.4017 736.5,-396 746.368,-376.7007 751.3924,-352.6348 753.9364,-334.2459"/>
<polygon fill="#c0c0c0" stroke="#c0c0c0" stroke-width="2" points="757.4308,-334.5035 755.1654,-324.1537 750.4821,-333.6573 757.4308,-334.5035"/>
</g>
<!-- 8&#45;&gt;0 -->
<g id="edge8" class="edge">
<title>8&#45;&gt;0</title>
<path fill="none" stroke="#c0c0c0" stroke-width="2" d="M728.0143,-372.1783C759.4616,-365.715 800.1847,-352.1829 824.5,-324 851.2671,-292.9753 844.5,-274.9758 844.5,-234 844.5,-234 844.5,-234 844.5,-162 844.5,-112.6587 821.7335,-97.5127 779.5,-72 726.723,-40.1181 551.3571,-26.0843 458.8273,-20.7746"/>
<polygon fill="#c0c0c0" stroke="#c0c0c0" stroke-width="2" points="458.9609,-17.2767 448.7813,-20.2137 458.5706,-24.2658 458.9609,-17.2767"/>
</g>
<!-- 8&#45;&gt;9 -->
<g id="edge21" class="edge">
<title>8&#45;&gt;9</title>
<path fill="none" stroke="#c0c0c0" stroke-width="2" d="M638.7332,-360.3868C611.2835,-349.5869 576.1633,-335.7692 548.1922,-324.7641"/>
<polygon fill="#c0c0c0" stroke="#c0c0c0" stroke-width="2" points="549.208,-321.4027 538.6209,-320.9984 546.6451,-327.9167 549.208,-321.4027"/>
</g>
<!-- 8&#45;&gt;10 -->
<g id="edge24" class="edge">
<title>8&#45;&gt;10</title>
<path fill="none" stroke="#c0c0c0" stroke-width="2" d="M701.921,-359.8314C710.6529,-351.219 721.2317,-340.7851 730.7423,-331.4048"/>
<polygon fill="#c0c0c0" stroke="#c0c0c0" stroke-width="2" points="733.423,-333.6769 738.0849,-324.1628 728.5075,-328.6931 733.423,-333.6769"/>
</g>
<!-- 9&#45;&gt;0 -->
<g id="edge9" class="edge">
<title>9&#45;&gt;0</title>
<path fill="none" stroke="#c0c0c0" stroke-width="2" d="M506.1279,-287.8776C514.8985,-255.8466 527.9547,-188.4231 498.5,-144 477.1776,-111.8419 443.6307,-138.1081 419.5,-108 405.596,-90.6519 401.1955,-65.5554 400.0741,-46.2687"/>
<polygon fill="#c0c0c0" stroke="#c0c0c0" stroke-width="2" points="403.5712,-46.119 399.7489,-36.2377 396.5748,-46.3459 403.5712,-46.119"/>
</g>
<!-- 9&#45;&gt;11 -->
<g id="edge25" class="edge">
<title>9&#45;&gt;11</title>
<path fill="none" stroke="#c0c0c0" stroke-width="2" d="M525.4819,-287.8314C537.7928,-278.8779 552.8107,-267.9558 566.0937,-258.2955"/>
<polygon fill="#c0c0c0" stroke="#c0c0c0" stroke-width="2" points="568.4973,-260.8752 574.5261,-252.1628 564.3801,-255.214 568.4973,-260.8752"/>
</g>
<!-- 10&#45;&gt;0 -->
<g id="edge10" class="edge">
<title>10&#45;&gt;0</title>
<path fill="none" stroke="#c0c0c0" stroke-width="2" d="M763.3332,-287.7585C778.2689,-244.4025 808.3736,-134.1753 754.5,-72 735.4,-49.9567 554.0738,-31.2134 458.6266,-22.7773"/>
<polygon fill="#c0c0c0" stroke="#c0c0c0" stroke-width="2" points="458.814,-19.2804 448.5472,-21.8965 458.2045,-26.2538 458.814,-19.2804"/>
</g>
<!-- 10&#45;&gt;11 -->
<g id="edge26" class="edge">
<title>10&#45;&gt;11</title>
<path fill="none" stroke="#c0c0c0" stroke-width="2" d="M716.8823,-287.8314C695.9778,-278.2446 670.1517,-266.4008 648.0512,-256.2655"/>
<polygon fill="#c0c0c0" stroke="#c0c0c0" stroke-width="2" points="649.3816,-253.0252 638.8328,-252.038 646.4636,-259.388 649.3816,-253.0252"/>
</g>
<!-- 11&#45;&gt;0 -->
<g id="edge11" class="edge">
<title>11&#45;&gt;0</title>
<path fill="none" stroke="#c0c0c0" stroke-width="2" d="M628.1308,-215.9478C673.5062,-185.157 752.7734,-121.0574 711.5,-72 679.8237,-34.3497 539.5661,-22.9493 458.6403,-19.4979"/>
<polygon fill="#c0c0c0" stroke="#c0c0c0" stroke-width="2" points="458.727,-15.9987 448.5954,-19.0973 458.448,-22.9931 458.727,-15.9987"/>
</g>
<!-- 11&#45;&gt;13 -->
<g id="edge29" class="edge">
<title>11&#45;&gt;13</title>
<path fill="none" stroke="#c0c0c0" stroke-width="2" d="M560.387,-215.8314C539.7488,-206.2446 514.2516,-194.4008 492.4327,-184.2655"/>
<polygon fill="#c0c0c0" stroke="#c0c0c0" stroke-width="2" points="493.8756,-181.0766 483.3318,-180.038 490.9266,-187.4251 493.8756,-181.0766"/>
</g>
<!-- 14 -->
<g id="node15" class="node">
<title>14</title>
<path fill="none" stroke="#567bd8" stroke-width="2" d="M530,-108C530,-108 441,-108 441,-108 435,-108 429,-102 429,-96 429,-96 429,-84 429,-84 429,-78 435,-72 441,-72 441,-72 530,-72 530,-72 536,-72 542,-78 542,-84 542,-84 542,-96 542,-96 542,-102 536,-108 530,-108"/>
<text text-anchor="middle" x="485.5" y="-87.5" font-family="sans" font-size="10.00" fill="#000000">interactive_jsd_plot</text>
</g>
<!-- 11&#45;&gt;14 -->
<g id="edge32" class="edge">
<title>11&#45;&gt;14</title>
<path fill="none" stroke="#c0c0c0" stroke-width="2" d="M586.838,-215.6957C573.896,-197.2403 552.9864,-168.1121 533.5,-144 525.8166,-134.4927 517.0271,-124.3984 509.087,-115.5418"/>
<polygon fill="#c0c0c0" stroke="#c0c0c0" stroke-width="2" points="511.6809,-113.192 502.3772,-108.1232 506.4894,-117.8875 511.6809,-113.192"/>
</g>
<!-- 15 -->
<g id="node16" class="node">
<title>15</title>
<path fill="none" stroke="#d87556" stroke-width="2" d="M690.5,-108C690.5,-108 572.5,-108 572.5,-108 566.5,-108 560.5,-102 560.5,-96 560.5,-96 560.5,-84 560.5,-84 560.5,-78 566.5,-72 572.5,-72 572.5,-72 690.5,-72 690.5,-72 696.5,-72 702.5,-78 702.5,-84 702.5,-84 702.5,-96 702.5,-96 702.5,-102 696.5,-108 690.5,-108"/>
<text text-anchor="middle" x="631.5" y="-87.5" font-family="sans" font-size="10.00" fill="#000000">interactive_heatmap_plot</text>
</g>
<!-- 11&#45;&gt;15 -->
<g id="edge34" class="edge">
<title>11&#45;&gt;15</title>
<path fill="none" stroke="#c0c0c0" stroke-width="2" d="M603.5528,-215.7623C609.0349,-191.0928 618.8645,-146.8598 625.2838,-117.9731"/>
<polygon fill="#c0c0c0" stroke="#c0c0c0" stroke-width="2" points="628.7274,-118.6108 627.4801,-108.0896 621.894,-117.0922 628.7274,-118.6108"/>
</g>
<!-- 12 -->
<g id="node13" class="node">
<title>12</title>
<path fill="none" stroke="#b6d856" stroke-width="2" d="M666.5,-324C666.5,-324 568.5,-324 568.5,-324 562.5,-324 556.5,-318 556.5,-312 556.5,-312 556.5,-300 556.5,-300 556.5,-294 562.5,-288 568.5,-288 568.5,-288 666.5,-288 666.5,-288 672.5,-288 678.5,-294 678.5,-300 678.5,-300 678.5,-312 678.5,-312 678.5,-318 672.5,-324 666.5,-324"/>
<text text-anchor="middle" x="617.5" y="-303.5" font-family="sans" font-size="10.00" fill="#000000">gisaid_rbd_mutations</text>
</g>
<!-- 12&#45;&gt;0 -->
<g id="edge15" class="edge">
<title>12&#45;&gt;0</title>
<path fill="none" stroke="#c0c0c0" stroke-width="2" d="M639.1713,-287.8213C686.5008,-245.9906 790.3298,-141.2051 731.5,-72 714.0703,-51.4963 549.1896,-32.4444 458.9168,-23.4406"/>
<polygon fill="#c0c0c0" stroke="#c0c0c0" stroke-width="2" points="459.1201,-19.9438 448.8247,-22.4449 458.4327,-26.91 459.1201,-19.9438"/>
</g>
<!-- 12&#45;&gt;11 -->
<g id="edge28" class="edge">
<title>12&#45;&gt;11</title>
<path fill="none" stroke="#c0c0c0" stroke-width="2" d="M612.9578,-287.8314C611.0116,-280.0463 608.6932,-270.7729 606.5337,-262.1347"/>
<polygon fill="#c0c0c0" stroke="#c0c0c0" stroke-width="2" points="609.9242,-261.2658 604.1033,-252.4133 603.1332,-262.9636 609.9242,-261.2658"/>
</g>
<!-- 13&#45;&gt;0 -->
<g id="edge12" class="edge">
<title>13&#45;&gt;0</title>
<path fill="none" stroke="#c0c0c0" stroke-width="2" d="M416.5391,-143.862C404.946,-134.6621 392.7598,-122.3809 386.5,-108 377.9267,-88.3042 382.3942,-64.169 388.4766,-45.8519"/>
<polygon fill="#c0c0c0" stroke="#c0c0c0" stroke-width="2" points="391.8077,-46.9333 391.9493,-36.3394 385.2321,-44.5327 391.8077,-46.9333"/>
</g>
<!-- 13&#45;&gt;14 -->
<g id="edge33" class="edge">
<title>13&#45;&gt;14</title>
<path fill="none" stroke="#c0c0c0" stroke-width="2" d="M454.846,-143.8314C459.4237,-135.7925 464.9052,-126.1666 469.9588,-117.2918"/>
<polygon fill="#c0c0c0" stroke="#c0c0c0" stroke-width="2" points="473.1077,-118.8351 475.0147,-108.4133 467.0248,-115.3712 473.1077,-118.8351"/>
</g>
<!-- 14&#45;&gt;0 -->
<g id="edge13" class="edge">
<title>14&#45;&gt;0</title>
<path fill="none" stroke="#c0c0c0" stroke-width="2" d="M464.0509,-71.8314C453.6822,-63.0485 441.0771,-52.3712 429.8354,-42.8489"/>
<polygon fill="#c0c0c0" stroke="#c0c0c0" stroke-width="2" points="431.8349,-39.9556 421.9422,-36.1628 427.3105,-45.297 431.8349,-39.9556"/>
</g>
<!-- 15&#45;&gt;0 -->
<g id="edge14" class="edge">
<title>15&#45;&gt;0</title>
<path fill="none" stroke="#c0c0c0" stroke-width="2" d="M573.5071,-71.9243C538.3248,-60.9584 493.5849,-47.0135 458.4165,-36.0519"/>
<polygon fill="#c0c0c0" stroke="#c0c0c0" stroke-width="2" points="459.3555,-32.6785 448.7669,-33.0442 457.2724,-39.3615 459.3555,-32.6785"/>
</g>
</g>
</svg>
